<svg width="26" height="26" viewBox="0 0 26 26" fill="none" xmlns="http://www.w3.org/2000/svg">
<path d="M21.9809 8.98083L17.3334 13.6283L15.925 12.2308L14.3975 13.7692L17.3225 16.6942L23.5192 10.5192L21.9809 8.98083ZM4.33335 8.66667C4.32001 9.23938 4.42298 9.80884 4.63603 10.3406C4.84907 10.8724 5.16778 11.3554 5.57285 11.7605C5.97793 12.1656 6.46096 12.4843 6.99274 12.6973C7.52451 12.9104 8.09398 13.0133 8.66669 13C9.2394 13.0133 9.80886 12.9104 10.3406 12.6973C10.8724 12.4843 11.3554 12.1656 11.7605 11.7605C12.1656 11.3554 12.4843 10.8724 12.6973 10.3406C12.9104 9.80884 13.0134 9.23938 13 8.66667C13.0134 8.09396 12.9104 7.52449 12.6973 6.99272C12.4843 6.46094 12.1656 5.97791 11.7605 5.57283C11.3554 5.16775 10.8724 4.84905 10.3406 4.63601C9.80886 4.42296 9.2394 4.31999 8.66669 4.33333C8.09398 4.31999 7.52451 4.42296 6.99274 4.63601C6.46096 4.84905 5.97793 5.16775 5.57285 5.57283C5.16778 5.97791 4.84907 6.46094 4.63603 6.99272C4.42298 7.52449 4.32001 8.09396 4.33335 8.66667ZM10.8334 8.66667C10.8473 8.95489 10.8008 9.24284 10.6968 9.51202C10.5929 9.7812 10.4338 10.0257 10.2297 10.2297C10.0257 10.4337 9.78122 10.5929 9.51204 10.6968C9.24286 10.8008 8.95491 10.8473 8.66669 10.8333C8.37847 10.8473 8.09052 10.8008 7.82134 10.6968C7.55215 10.5929 7.30769 10.4337 7.10365 10.2297C6.89961 10.0257 6.7405 9.7812 6.63655 9.51202C6.53259 9.24284 6.48609 8.95489 6.50002 8.66667C6.48609 8.37844 6.53259 8.0905 6.63655 7.82131C6.7405 7.55213 6.89961 7.30767 7.10365 7.10363C7.30769 6.89959 7.55215 6.74048 7.82134 6.63653C8.09052 6.53257 8.37847 6.48607 8.66669 6.5C8.95491 6.48607 9.24286 6.53257 9.51204 6.63653C9.78122 6.74048 10.0257 6.89959 10.2297 7.10363C10.4338 7.30767 10.5929 7.55213 10.6968 7.82131C10.8008 8.0905 10.8473 8.37844 10.8334 8.66667V8.66667ZM4.33335 19.5C4.33335 18.638 4.67576 17.8114 5.28526 17.2019C5.89475 16.5924 6.7214 16.25 7.58335 16.25H9.75002C10.612 16.25 11.4386 16.5924 12.0481 17.2019C12.6576 17.8114 13 18.638 13 19.5V20.5833H15.1667V19.5C15.1667 18.7887 15.0266 18.0843 14.7544 17.4271C14.4822 16.7699 14.0832 16.1728 13.5802 15.6698C13.0772 15.1669 12.4801 14.7679 11.8229 14.4957C11.1657 14.2234 10.4613 14.0833 9.75002 14.0833H7.58335C6.14676 14.0833 4.76901 14.654 3.75319 15.6698C2.73737 16.6857 2.16669 18.0634 2.16669 19.5V20.5833H4.33335V19.5Z" fill="white"/>
</svg>
